<mxfile host="app.diagrams.net" modified="2021-10-08T21:06:15.013Z" agent="5.0 (Windows NT 10.0; Win64; x64) AppleWebKit/537.36 (KHTML, like Gecko) Chrome/94.0.4606.61 Safari/537.36" etag="mEl4PJ_KSL4uXqQD0_by" version="15.5.0" type="github">
  <diagram id="lxE2VkOdqUIYpiyDrDei" name="Page-1">
    <mxGraphModel dx="868" dy="1690" grid="1" gridSize="10" guides="1" tooltips="1" connect="1" arrows="1" fold="1" page="1" pageScale="1" pageWidth="827" pageHeight="1169" math="0" shadow="0">
      <root>
        <mxCell id="0" />
        <mxCell id="1" parent="0" />
        <mxCell id="0BagbGhijmzTopwAj-QU-45" style="edgeStyle=orthogonalEdgeStyle;rounded=0;orthogonalLoop=1;jettySize=auto;html=1;entryX=0.5;entryY=0;entryDx=0;entryDy=0;" parent="1" source="0BagbGhijmzTopwAj-QU-1" target="0BagbGhijmzTopwAj-QU-44" edge="1">
          <mxGeometry relative="1" as="geometry" />
        </mxCell>
        <mxCell id="0BagbGhijmzTopwAj-QU-49" style="edgeStyle=orthogonalEdgeStyle;rounded=0;orthogonalLoop=1;jettySize=auto;html=1;entryX=0.75;entryY=0;entryDx=0;entryDy=0;entryPerimeter=0;" parent="1" source="0BagbGhijmzTopwAj-QU-1" target="0BagbGhijmzTopwAj-QU-3" edge="1">
          <mxGeometry relative="1" as="geometry" />
        </mxCell>
        <mxCell id="0BagbGhijmzTopwAj-QU-50" style="edgeStyle=orthogonalEdgeStyle;rounded=0;orthogonalLoop=1;jettySize=auto;html=1;entryX=0.1;entryY=0.213;entryDx=0;entryDy=0;entryPerimeter=0;" parent="1" source="0BagbGhijmzTopwAj-QU-1" target="0BagbGhijmzTopwAj-QU-20" edge="1">
          <mxGeometry relative="1" as="geometry">
            <mxPoint x="940" y="150" as="targetPoint" />
          </mxGeometry>
        </mxCell>
        <mxCell id="0BagbGhijmzTopwAj-QU-1" value="сlass Program" style="ellipse;whiteSpace=wrap;html=1;" parent="1" vertex="1">
          <mxGeometry x="520" y="90" width="120" height="80" as="geometry" />
        </mxCell>
        <mxCell id="0BagbGhijmzTopwAj-QU-5" style="edgeStyle=orthogonalEdgeStyle;rounded=0;orthogonalLoop=1;jettySize=auto;html=1;" parent="1" source="0BagbGhijmzTopwAj-QU-3" target="0BagbGhijmzTopwAj-QU-4" edge="1">
          <mxGeometry relative="1" as="geometry" />
        </mxCell>
        <mxCell id="0BagbGhijmzTopwAj-QU-3" value="method Menu()" style="ellipse;whiteSpace=wrap;html=1;" parent="1" vertex="1">
          <mxGeometry x="80" y="140" width="120" height="80" as="geometry" />
        </mxCell>
        <mxCell id="0BagbGhijmzTopwAj-QU-7" style="edgeStyle=orthogonalEdgeStyle;rounded=0;orthogonalLoop=1;jettySize=auto;html=1;entryX=0.5;entryY=0;entryDx=0;entryDy=0;" parent="1" source="0BagbGhijmzTopwAj-QU-4" target="0BagbGhijmzTopwAj-QU-6" edge="1">
          <mxGeometry relative="1" as="geometry" />
        </mxCell>
        <mxCell id="0BagbGhijmzTopwAj-QU-4" value="Output:Chose mode 1.Convert ready examples 2.Enter the number manually" style="shape=parallelogram;perimeter=parallelogramPerimeter;whiteSpace=wrap;html=1;fixedSize=1;" parent="1" vertex="1">
          <mxGeometry x="15" y="260" width="250" height="110" as="geometry" />
        </mxCell>
        <mxCell id="0BagbGhijmzTopwAj-QU-9" style="edgeStyle=orthogonalEdgeStyle;rounded=0;orthogonalLoop=1;jettySize=auto;html=1;entryX=0.5;entryY=0;entryDx=0;entryDy=0;" parent="1" source="0BagbGhijmzTopwAj-QU-6" target="0BagbGhijmzTopwAj-QU-8" edge="1">
          <mxGeometry relative="1" as="geometry" />
        </mxCell>
        <mxCell id="0BagbGhijmzTopwAj-QU-6" value="int choice;&lt;br&gt;bool result = int.TryParse(Console.ReadLine(),out result)" style="rounded=0;whiteSpace=wrap;html=1;" parent="1" vertex="1">
          <mxGeometry x="15" y="410" width="250" height="60" as="geometry" />
        </mxCell>
        <mxCell id="0BagbGhijmzTopwAj-QU-11" style="edgeStyle=orthogonalEdgeStyle;rounded=0;orthogonalLoop=1;jettySize=auto;html=1;entryX=0.5;entryY=0;entryDx=0;entryDy=0;" parent="1" source="0BagbGhijmzTopwAj-QU-8" target="0BagbGhijmzTopwAj-QU-10" edge="1">
          <mxGeometry relative="1" as="geometry" />
        </mxCell>
        <mxCell id="0BagbGhijmzTopwAj-QU-8" value="while(result==false ||choice&amp;lt;1 || choice&amp;gt;3)" style="shape=trapezoid;perimeter=trapezoidPerimeter;whiteSpace=wrap;html=1;fixedSize=1;" parent="1" vertex="1">
          <mxGeometry x="30" y="510" width="220" height="60" as="geometry" />
        </mxCell>
        <mxCell id="0BagbGhijmzTopwAj-QU-13" style="edgeStyle=orthogonalEdgeStyle;rounded=0;orthogonalLoop=1;jettySize=auto;html=1;entryX=0.5;entryY=0;entryDx=0;entryDy=0;" parent="1" source="0BagbGhijmzTopwAj-QU-10" target="0BagbGhijmzTopwAj-QU-12" edge="1">
          <mxGeometry relative="1" as="geometry" />
        </mxCell>
        <mxCell id="0BagbGhijmzTopwAj-QU-10" value="Output: Operation input error&lt;br&gt;Output:Chose mode 1.Convert ready examples 2.Enter the number manually" style="shape=parallelogram;perimeter=parallelogramPerimeter;whiteSpace=wrap;html=1;fixedSize=1;" parent="1" vertex="1">
          <mxGeometry y="610" width="280" height="60" as="geometry" />
        </mxCell>
        <mxCell id="0BagbGhijmzTopwAj-QU-15" style="edgeStyle=orthogonalEdgeStyle;rounded=0;orthogonalLoop=1;jettySize=auto;html=1;entryX=0.5;entryY=1;entryDx=0;entryDy=0;" parent="1" source="0BagbGhijmzTopwAj-QU-12" target="0BagbGhijmzTopwAj-QU-14" edge="1">
          <mxGeometry relative="1" as="geometry" />
        </mxCell>
        <mxCell id="0BagbGhijmzTopwAj-QU-12" value="&lt;span&gt;result = int.TryParse(Console.ReadLine(),out result)&lt;/span&gt;" style="rounded=0;whiteSpace=wrap;html=1;" parent="1" vertex="1">
          <mxGeometry x="30" y="710" width="220" height="60" as="geometry" />
        </mxCell>
        <mxCell id="0BagbGhijmzTopwAj-QU-17" style="edgeStyle=orthogonalEdgeStyle;rounded=0;orthogonalLoop=1;jettySize=auto;html=1;entryX=0.5;entryY=0;entryDx=0;entryDy=0;" parent="1" source="0BagbGhijmzTopwAj-QU-14" target="0BagbGhijmzTopwAj-QU-16" edge="1">
          <mxGeometry relative="1" as="geometry" />
        </mxCell>
        <mxCell id="0BagbGhijmzTopwAj-QU-14" value="" style="shape=trapezoid;perimeter=trapezoidPerimeter;whiteSpace=wrap;html=1;fixedSize=1;direction=west;" parent="1" vertex="1">
          <mxGeometry x="80" y="820" width="120" height="60" as="geometry" />
        </mxCell>
        <mxCell id="0BagbGhijmzTopwAj-QU-19" style="edgeStyle=orthogonalEdgeStyle;rounded=0;orthogonalLoop=1;jettySize=auto;html=1;entryX=0.5;entryY=0;entryDx=0;entryDy=0;" parent="1" source="0BagbGhijmzTopwAj-QU-16" target="0BagbGhijmzTopwAj-QU-18" edge="1">
          <mxGeometry relative="1" as="geometry" />
        </mxCell>
        <mxCell id="0BagbGhijmzTopwAj-QU-16" value="return choice;" style="rounded=0;whiteSpace=wrap;html=1;" parent="1" vertex="1">
          <mxGeometry x="80" y="920" width="120" height="60" as="geometry" />
        </mxCell>
        <mxCell id="0BagbGhijmzTopwAj-QU-18" value="end" style="ellipse;whiteSpace=wrap;html=1;" parent="1" vertex="1">
          <mxGeometry x="80" y="1010" width="120" height="80" as="geometry" />
        </mxCell>
        <mxCell id="0BagbGhijmzTopwAj-QU-22" style="edgeStyle=orthogonalEdgeStyle;rounded=0;orthogonalLoop=1;jettySize=auto;html=1;entryX=0.5;entryY=0;entryDx=0;entryDy=0;" parent="1" source="0BagbGhijmzTopwAj-QU-20" target="0BagbGhijmzTopwAj-QU-21" edge="1">
          <mxGeometry relative="1" as="geometry" />
        </mxCell>
        <mxCell id="0BagbGhijmzTopwAj-QU-20" value="method GetExamples()" style="ellipse;whiteSpace=wrap;html=1;" parent="1" vertex="1">
          <mxGeometry x="955" y="130" width="120" height="80" as="geometry" />
        </mxCell>
        <mxCell id="0BagbGhijmzTopwAj-QU-24" style="edgeStyle=orthogonalEdgeStyle;rounded=0;orthogonalLoop=1;jettySize=auto;html=1;entryX=0.5;entryY=0;entryDx=0;entryDy=0;" parent="1" source="0BagbGhijmzTopwAj-QU-21" target="0BagbGhijmzTopwAj-QU-23" edge="1">
          <mxGeometry relative="1" as="geometry" />
        </mxCell>
        <mxCell id="0BagbGhijmzTopwAj-QU-21" value="List&amp;lt;ulong&amp;gt; examples ;&lt;br&gt;Random rand = new Random();&lt;br&gt;string num = &quot;&quot;;" style="rounded=0;whiteSpace=wrap;html=1;" parent="1" vertex="1">
          <mxGeometry x="910" y="240" width="210" height="60" as="geometry" />
        </mxCell>
        <mxCell id="0BagbGhijmzTopwAj-QU-26" style="edgeStyle=orthogonalEdgeStyle;rounded=0;orthogonalLoop=1;jettySize=auto;html=1;" parent="1" source="0BagbGhijmzTopwAj-QU-23" target="0BagbGhijmzTopwAj-QU-25" edge="1">
          <mxGeometry relative="1" as="geometry" />
        </mxCell>
        <mxCell id="0BagbGhijmzTopwAj-QU-23" value="for(int i =0;i&amp;lt;10;i++)" style="shape=trapezoid;perimeter=trapezoidPerimeter;whiteSpace=wrap;html=1;fixedSize=1;" parent="1" vertex="1">
          <mxGeometry x="915" y="350" width="200" height="60" as="geometry" />
        </mxCell>
        <mxCell id="0BagbGhijmzTopwAj-QU-28" style="edgeStyle=orthogonalEdgeStyle;rounded=0;orthogonalLoop=1;jettySize=auto;html=1;" parent="1" source="0BagbGhijmzTopwAj-QU-25" target="0BagbGhijmzTopwAj-QU-27" edge="1">
          <mxGeometry relative="1" as="geometry" />
        </mxCell>
        <mxCell id="0BagbGhijmzTopwAj-QU-25" value="for(int j=0;j&amp;lt;12;j++)" style="shape=trapezoid;perimeter=trapezoidPerimeter;whiteSpace=wrap;html=1;fixedSize=1;" parent="1" vertex="1">
          <mxGeometry x="922.5" y="450" width="185" height="60" as="geometry" />
        </mxCell>
        <mxCell id="0BagbGhijmzTopwAj-QU-30" style="edgeStyle=orthogonalEdgeStyle;rounded=0;orthogonalLoop=1;jettySize=auto;html=1;entryX=0.5;entryY=0;entryDx=0;entryDy=0;" parent="1" source="0BagbGhijmzTopwAj-QU-27" target="0BagbGhijmzTopwAj-QU-29" edge="1">
          <mxGeometry relative="1" as="geometry" />
        </mxCell>
        <mxCell id="0BagbGhijmzTopwAj-QU-32" style="edgeStyle=orthogonalEdgeStyle;rounded=0;orthogonalLoop=1;jettySize=auto;html=1;entryX=0.5;entryY=0;entryDx=0;entryDy=0;" parent="1" source="0BagbGhijmzTopwAj-QU-27" target="0BagbGhijmzTopwAj-QU-34" edge="1">
          <mxGeometry relative="1" as="geometry">
            <mxPoint x="1015" y="750" as="targetPoint" />
          </mxGeometry>
        </mxCell>
        <mxCell id="0BagbGhijmzTopwAj-QU-27" value="j == 0 || j ==12" style="rhombus;whiteSpace=wrap;html=1;" parent="1" vertex="1">
          <mxGeometry x="957.5" y="550" width="115" height="80" as="geometry" />
        </mxCell>
        <mxCell id="0BagbGhijmzTopwAj-QU-33" style="edgeStyle=orthogonalEdgeStyle;rounded=0;orthogonalLoop=1;jettySize=auto;html=1;" parent="1" source="0BagbGhijmzTopwAj-QU-29" edge="1">
          <mxGeometry relative="1" as="geometry">
            <mxPoint x="1010" y="740" as="targetPoint" />
            <Array as="points">
              <mxPoint x="1190" y="740" />
              <mxPoint x="1040" y="740" />
            </Array>
          </mxGeometry>
        </mxCell>
        <mxCell id="0BagbGhijmzTopwAj-QU-29" value="num+=&quot;1&quot;;&lt;br&gt;continue;" style="rounded=0;whiteSpace=wrap;html=1;" parent="1" vertex="1">
          <mxGeometry x="1130" y="650" width="120" height="60" as="geometry" />
        </mxCell>
        <mxCell id="0BagbGhijmzTopwAj-QU-31" value="Yes" style="text;html=1;strokeColor=none;fillColor=none;align=center;verticalAlign=middle;whiteSpace=wrap;rounded=0;" parent="1" vertex="1">
          <mxGeometry x="1075" y="555" width="60" height="30" as="geometry" />
        </mxCell>
        <mxCell id="0BagbGhijmzTopwAj-QU-37" style="edgeStyle=orthogonalEdgeStyle;rounded=0;orthogonalLoop=1;jettySize=auto;html=1;" parent="1" source="0BagbGhijmzTopwAj-QU-34" target="0BagbGhijmzTopwAj-QU-36" edge="1">
          <mxGeometry relative="1" as="geometry" />
        </mxCell>
        <mxCell id="0BagbGhijmzTopwAj-QU-34" value="num+=rand.Next(0,2).ToString()" style="rounded=0;whiteSpace=wrap;html=1;" parent="1" vertex="1">
          <mxGeometry x="915" y="800" width="201.25" height="60" as="geometry" />
        </mxCell>
        <mxCell id="0BagbGhijmzTopwAj-QU-39" style="edgeStyle=orthogonalEdgeStyle;rounded=0;orthogonalLoop=1;jettySize=auto;html=1;entryX=0.5;entryY=0;entryDx=0;entryDy=0;" parent="1" source="0BagbGhijmzTopwAj-QU-36" target="0BagbGhijmzTopwAj-QU-38" edge="1">
          <mxGeometry relative="1" as="geometry" />
        </mxCell>
        <mxCell id="0BagbGhijmzTopwAj-QU-36" value="" style="shape=trapezoid;perimeter=trapezoidPerimeter;whiteSpace=wrap;html=1;fixedSize=1;direction=west;" parent="1" vertex="1">
          <mxGeometry x="955.63" y="900" width="120" height="60" as="geometry" />
        </mxCell>
        <mxCell id="0BagbGhijmzTopwAj-QU-41" style="edgeStyle=orthogonalEdgeStyle;rounded=0;orthogonalLoop=1;jettySize=auto;html=1;" parent="1" source="0BagbGhijmzTopwAj-QU-38" target="0BagbGhijmzTopwAj-QU-40" edge="1">
          <mxGeometry relative="1" as="geometry" />
        </mxCell>
        <mxCell id="0BagbGhijmzTopwAj-QU-38" value="examples.Add(ulong.Parse(num));&lt;br&gt;num=&quot;&quot;;" style="rounded=0;whiteSpace=wrap;html=1;" parent="1" vertex="1">
          <mxGeometry x="912.5" y="990" width="205" height="60" as="geometry" />
        </mxCell>
        <mxCell id="0BagbGhijmzTopwAj-QU-43" style="edgeStyle=orthogonalEdgeStyle;rounded=0;orthogonalLoop=1;jettySize=auto;html=1;" parent="1" source="0BagbGhijmzTopwAj-QU-40" target="0BagbGhijmzTopwAj-QU-42" edge="1">
          <mxGeometry relative="1" as="geometry" />
        </mxCell>
        <mxCell id="0BagbGhijmzTopwAj-QU-40" value="" style="shape=trapezoid;perimeter=trapezoidPerimeter;whiteSpace=wrap;html=1;fixedSize=1;direction=west;" parent="1" vertex="1">
          <mxGeometry x="955" y="1090" width="120" height="60" as="geometry" />
        </mxCell>
        <mxCell id="0BagbGhijmzTopwAj-QU-94" style="edgeStyle=orthogonalEdgeStyle;rounded=0;orthogonalLoop=1;jettySize=auto;html=1;entryX=0.5;entryY=0;entryDx=0;entryDy=0;" parent="1" source="0BagbGhijmzTopwAj-QU-42" target="0BagbGhijmzTopwAj-QU-93" edge="1">
          <mxGeometry relative="1" as="geometry" />
        </mxCell>
        <mxCell id="0BagbGhijmzTopwAj-QU-42" value="return examples;" style="rounded=0;whiteSpace=wrap;html=1;" parent="1" vertex="1">
          <mxGeometry x="955.63" y="1180" width="120" height="60" as="geometry" />
        </mxCell>
        <mxCell id="0BagbGhijmzTopwAj-QU-47" style="edgeStyle=orthogonalEdgeStyle;rounded=0;orthogonalLoop=1;jettySize=auto;html=1;entryX=0.5;entryY=0;entryDx=0;entryDy=0;" parent="1" source="0BagbGhijmzTopwAj-QU-44" target="0BagbGhijmzTopwAj-QU-46" edge="1">
          <mxGeometry relative="1" as="geometry" />
        </mxCell>
        <mxCell id="0BagbGhijmzTopwAj-QU-44" value="BinaryToDecimalConvert binaryToDecimal = new BinaryToDecimalConvert();&lt;br&gt;bool stopButton = false;&lt;br&gt;&amp;nbsp;" style="rounded=0;whiteSpace=wrap;html=1;" parent="1" vertex="1">
          <mxGeometry x="445" y="230" width="270" height="60" as="geometry" />
        </mxCell>
        <mxCell id="0BagbGhijmzTopwAj-QU-51" style="edgeStyle=orthogonalEdgeStyle;rounded=0;orthogonalLoop=1;jettySize=auto;html=1;entryX=0.5;entryY=0;entryDx=0;entryDy=0;" parent="1" source="0BagbGhijmzTopwAj-QU-46" target="0BagbGhijmzTopwAj-QU-48" edge="1">
          <mxGeometry relative="1" as="geometry" />
        </mxCell>
        <mxCell id="0BagbGhijmzTopwAj-QU-46" value="while(!stopButton)" style="shape=trapezoid;perimeter=trapezoidPerimeter;whiteSpace=wrap;html=1;fixedSize=1;" parent="1" vertex="1">
          <mxGeometry x="515" y="320" width="130" height="60" as="geometry" />
        </mxCell>
        <mxCell id="0BagbGhijmzTopwAj-QU-56" style="edgeStyle=orthogonalEdgeStyle;rounded=0;orthogonalLoop=1;jettySize=auto;html=1;entryX=0.5;entryY=0;entryDx=0;entryDy=0;" parent="1" source="0BagbGhijmzTopwAj-QU-48" target="0BagbGhijmzTopwAj-QU-52" edge="1">
          <mxGeometry relative="1" as="geometry" />
        </mxCell>
        <mxCell id="0BagbGhijmzTopwAj-QU-48" value="switch(Menu())" style="rhombus;whiteSpace=wrap;html=1;" parent="1" vertex="1">
          <mxGeometry x="520" y="420" width="120" height="80" as="geometry" />
        </mxCell>
        <mxCell id="0BagbGhijmzTopwAj-QU-55" style="edgeStyle=orthogonalEdgeStyle;rounded=0;orthogonalLoop=1;jettySize=auto;html=1;entryX=0;entryY=0.5;entryDx=0;entryDy=0;" parent="1" source="0BagbGhijmzTopwAj-QU-52" target="0BagbGhijmzTopwAj-QU-53" edge="1">
          <mxGeometry relative="1" as="geometry" />
        </mxCell>
        <mxCell id="0BagbGhijmzTopwAj-QU-64" style="edgeStyle=orthogonalEdgeStyle;rounded=0;orthogonalLoop=1;jettySize=auto;html=1;entryX=0.5;entryY=0;entryDx=0;entryDy=0;" parent="1" source="0BagbGhijmzTopwAj-QU-52" target="0BagbGhijmzTopwAj-QU-63" edge="1">
          <mxGeometry relative="1" as="geometry" />
        </mxCell>
        <mxCell id="0BagbGhijmzTopwAj-QU-52" value="case 1:" style="rhombus;whiteSpace=wrap;html=1;" parent="1" vertex="1">
          <mxGeometry x="400" y="550" width="80" height="80" as="geometry" />
        </mxCell>
        <mxCell id="0BagbGhijmzTopwAj-QU-58" style="edgeStyle=orthogonalEdgeStyle;rounded=0;orthogonalLoop=1;jettySize=auto;html=1;entryX=0.5;entryY=0;entryDx=0;entryDy=0;" parent="1" source="0BagbGhijmzTopwAj-QU-53" target="0BagbGhijmzTopwAj-QU-57" edge="1">
          <mxGeometry relative="1" as="geometry" />
        </mxCell>
        <mxCell id="0BagbGhijmzTopwAj-QU-53" value="List&amp;lt;ulong&amp;gt; list = GetExamples();" style="rounded=0;whiteSpace=wrap;html=1;" parent="1" vertex="1">
          <mxGeometry x="570" y="560" width="200" height="60" as="geometry" />
        </mxCell>
        <mxCell id="0BagbGhijmzTopwAj-QU-60" style="edgeStyle=orthogonalEdgeStyle;rounded=0;orthogonalLoop=1;jettySize=auto;html=1;" parent="1" source="0BagbGhijmzTopwAj-QU-57" target="0BagbGhijmzTopwAj-QU-59" edge="1">
          <mxGeometry relative="1" as="geometry" />
        </mxCell>
        <mxCell id="0BagbGhijmzTopwAj-QU-57" value="foreach(vae el in list)" style="shape=trapezoid;perimeter=trapezoidPerimeter;whiteSpace=wrap;html=1;fixedSize=1;" parent="1" vertex="1">
          <mxGeometry x="590" y="660" width="160" height="60" as="geometry" />
        </mxCell>
        <mxCell id="0BagbGhijmzTopwAj-QU-62" style="edgeStyle=orthogonalEdgeStyle;rounded=0;orthogonalLoop=1;jettySize=auto;html=1;" parent="1" source="0BagbGhijmzTopwAj-QU-59" target="0BagbGhijmzTopwAj-QU-61" edge="1">
          <mxGeometry relative="1" as="geometry" />
        </mxCell>
        <mxCell id="0BagbGhijmzTopwAj-QU-59" value="Output: el + =&amp;gt; + binaryToDecimal.GetResult(el);" style="shape=parallelogram;perimeter=parallelogramPerimeter;whiteSpace=wrap;html=1;fixedSize=1;" parent="1" vertex="1">
          <mxGeometry x="570" y="750" width="200" height="60" as="geometry" />
        </mxCell>
        <mxCell id="0BagbGhijmzTopwAj-QU-82" style="edgeStyle=orthogonalEdgeStyle;rounded=0;orthogonalLoop=1;jettySize=auto;html=1;entryX=0;entryY=0.5;entryDx=0;entryDy=0;" parent="1" source="0BagbGhijmzTopwAj-QU-61" target="0BagbGhijmzTopwAj-QU-85" edge="1">
          <mxGeometry relative="1" as="geometry">
            <mxPoint x="850" y="1810" as="targetPoint" />
            <Array as="points">
              <mxPoint x="850" y="880" />
              <mxPoint x="850" y="1810" />
              <mxPoint x="680" y="1810" />
              <mxPoint x="680" y="1800" />
            </Array>
          </mxGeometry>
        </mxCell>
        <mxCell id="0BagbGhijmzTopwAj-QU-61" value="" style="shape=trapezoid;perimeter=trapezoidPerimeter;whiteSpace=wrap;html=1;fixedSize=1;direction=west;" parent="1" vertex="1">
          <mxGeometry x="610" y="850" width="120" height="60" as="geometry" />
        </mxCell>
        <mxCell id="0BagbGhijmzTopwAj-QU-69" style="edgeStyle=orthogonalEdgeStyle;rounded=0;orthogonalLoop=1;jettySize=auto;html=1;" parent="1" source="0BagbGhijmzTopwAj-QU-63" target="0BagbGhijmzTopwAj-QU-66" edge="1">
          <mxGeometry relative="1" as="geometry" />
        </mxCell>
        <mxCell id="0BagbGhijmzTopwAj-QU-79" style="edgeStyle=orthogonalEdgeStyle;rounded=0;orthogonalLoop=1;jettySize=auto;html=1;entryX=0.5;entryY=0;entryDx=0;entryDy=0;" parent="1" source="0BagbGhijmzTopwAj-QU-63" target="0BagbGhijmzTopwAj-QU-78" edge="1">
          <mxGeometry relative="1" as="geometry" />
        </mxCell>
        <mxCell id="0BagbGhijmzTopwAj-QU-63" value="case 2:" style="rhombus;whiteSpace=wrap;html=1;" parent="1" vertex="1">
          <mxGeometry x="400" y="960" width="80" height="80" as="geometry" />
        </mxCell>
        <mxCell id="0BagbGhijmzTopwAj-QU-68" style="edgeStyle=orthogonalEdgeStyle;rounded=0;orthogonalLoop=1;jettySize=auto;html=1;entryX=0.532;entryY=0.033;entryDx=0;entryDy=0;entryPerimeter=0;" parent="1" source="0BagbGhijmzTopwAj-QU-66" target="0BagbGhijmzTopwAj-QU-67" edge="1">
          <mxGeometry relative="1" as="geometry" />
        </mxCell>
        <mxCell id="0BagbGhijmzTopwAj-QU-66" value="Output:Enter your binary number;" style="shape=parallelogram;perimeter=parallelogramPerimeter;whiteSpace=wrap;html=1;fixedSize=1;" parent="1" vertex="1">
          <mxGeometry x="570" y="970" width="215" height="60" as="geometry" />
        </mxCell>
        <mxCell id="0BagbGhijmzTopwAj-QU-71" style="edgeStyle=orthogonalEdgeStyle;rounded=0;orthogonalLoop=1;jettySize=auto;html=1;" parent="1" source="0BagbGhijmzTopwAj-QU-67" edge="1">
          <mxGeometry relative="1" as="geometry">
            <mxPoint x="670" y="1170" as="targetPoint" />
          </mxGeometry>
        </mxCell>
        <mxCell id="0BagbGhijmzTopwAj-QU-67" value="double num;&lt;br&gt;bool convertCheck = double.TryParse(Console.ReadLine(),out num)" style="rounded=0;whiteSpace=wrap;html=1;" parent="1" vertex="1">
          <mxGeometry x="553.75" y="1070" width="247.5" height="60" as="geometry" />
        </mxCell>
        <mxCell id="0BagbGhijmzTopwAj-QU-73" style="edgeStyle=orthogonalEdgeStyle;rounded=0;orthogonalLoop=1;jettySize=auto;html=1;entryX=0.5;entryY=0;entryDx=0;entryDy=0;" parent="1" source="0BagbGhijmzTopwAj-QU-70" target="0BagbGhijmzTopwAj-QU-72" edge="1">
          <mxGeometry relative="1" as="geometry" />
        </mxCell>
        <mxCell id="0BagbGhijmzTopwAj-QU-70" value="while(!convertCheck)" style="shape=trapezoid;perimeter=trapezoidPerimeter;whiteSpace=wrap;html=1;fixedSize=1;" parent="1" vertex="1">
          <mxGeometry x="596.25" y="1169" width="162.5" height="60" as="geometry" />
        </mxCell>
        <mxCell id="0BagbGhijmzTopwAj-QU-75" style="edgeStyle=orthogonalEdgeStyle;rounded=0;orthogonalLoop=1;jettySize=auto;html=1;entryX=0.5;entryY=0;entryDx=0;entryDy=0;" parent="1" source="0BagbGhijmzTopwAj-QU-72" target="0BagbGhijmzTopwAj-QU-74" edge="1">
          <mxGeometry relative="1" as="geometry" />
        </mxCell>
        <mxCell id="0BagbGhijmzTopwAj-QU-72" value="output: Input error,try again \n Enter your binary number:" style="shape=parallelogram;perimeter=parallelogramPerimeter;whiteSpace=wrap;html=1;fixedSize=1;" parent="1" vertex="1">
          <mxGeometry x="552.5" y="1260" width="250" height="60" as="geometry" />
        </mxCell>
        <mxCell id="0BagbGhijmzTopwAj-QU-77" style="edgeStyle=orthogonalEdgeStyle;rounded=0;orthogonalLoop=1;jettySize=auto;html=1;entryX=0.5;entryY=0;entryDx=0;entryDy=0;" parent="1" source="0BagbGhijmzTopwAj-QU-74" target="0BagbGhijmzTopwAj-QU-76" edge="1">
          <mxGeometry relative="1" as="geometry" />
        </mxCell>
        <mxCell id="0BagbGhijmzTopwAj-QU-74" value="&lt;span&gt;&amp;nbsp;convertCheck = double.TryParse(Console.ReadLine(),out num)&lt;/span&gt;" style="rounded=0;whiteSpace=wrap;html=1;" parent="1" vertex="1">
          <mxGeometry x="562.5" y="1360" width="230" height="60" as="geometry" />
        </mxCell>
        <mxCell id="0BagbGhijmzTopwAj-QU-83" style="edgeStyle=orthogonalEdgeStyle;rounded=0;orthogonalLoop=1;jettySize=auto;html=1;" parent="1" source="0BagbGhijmzTopwAj-QU-76" edge="1">
          <mxGeometry relative="1" as="geometry">
            <mxPoint x="850" y="1490" as="targetPoint" />
          </mxGeometry>
        </mxCell>
        <mxCell id="0BagbGhijmzTopwAj-QU-76" value="output:Result + num + =&amp;gt; + binaryToDecimal.GetResult(num));" style="shape=parallelogram;perimeter=parallelogramPerimeter;whiteSpace=wrap;html=1;fixedSize=1;" parent="1" vertex="1">
          <mxGeometry x="563.75" y="1460" width="227.5" height="60" as="geometry" />
        </mxCell>
        <mxCell id="0BagbGhijmzTopwAj-QU-81" style="edgeStyle=orthogonalEdgeStyle;rounded=0;orthogonalLoop=1;jettySize=auto;html=1;entryX=0;entryY=0.5;entryDx=0;entryDy=0;" parent="1" source="0BagbGhijmzTopwAj-QU-78" target="0BagbGhijmzTopwAj-QU-80" edge="1">
          <mxGeometry relative="1" as="geometry" />
        </mxCell>
        <mxCell id="0BagbGhijmzTopwAj-QU-87" style="edgeStyle=orthogonalEdgeStyle;rounded=0;orthogonalLoop=1;jettySize=auto;html=1;" parent="1" source="0BagbGhijmzTopwAj-QU-78" target="0BagbGhijmzTopwAj-QU-85" edge="1">
          <mxGeometry relative="1" as="geometry">
            <mxPoint x="440" y="1800" as="targetPoint" />
            <Array as="points">
              <mxPoint x="440" y="1800" />
            </Array>
          </mxGeometry>
        </mxCell>
        <mxCell id="0BagbGhijmzTopwAj-QU-78" value="case 3:" style="rhombus;whiteSpace=wrap;html=1;" parent="1" vertex="1">
          <mxGeometry x="400" y="1550" width="80" height="80" as="geometry" />
        </mxCell>
        <mxCell id="0BagbGhijmzTopwAj-QU-84" style="edgeStyle=orthogonalEdgeStyle;rounded=0;orthogonalLoop=1;jettySize=auto;html=1;" parent="1" source="0BagbGhijmzTopwAj-QU-80" edge="1">
          <mxGeometry relative="1" as="geometry">
            <mxPoint x="850" y="1590" as="targetPoint" />
          </mxGeometry>
        </mxCell>
        <mxCell id="0BagbGhijmzTopwAj-QU-80" value="stopButton&amp;nbsp; = true;" style="rounded=0;whiteSpace=wrap;html=1;" parent="1" vertex="1">
          <mxGeometry x="617.5" y="1560" width="120" height="60" as="geometry" />
        </mxCell>
        <mxCell id="0BagbGhijmzTopwAj-QU-92" style="edgeStyle=orthogonalEdgeStyle;rounded=0;orthogonalLoop=1;jettySize=auto;html=1;" parent="1" source="0BagbGhijmzTopwAj-QU-85" target="0BagbGhijmzTopwAj-QU-91" edge="1">
          <mxGeometry relative="1" as="geometry" />
        </mxCell>
        <mxCell id="0BagbGhijmzTopwAj-QU-85" value="" style="shape=trapezoid;perimeter=trapezoidPerimeter;whiteSpace=wrap;html=1;fixedSize=1;direction=west;" parent="1" vertex="1">
          <mxGeometry x="520" y="1770" width="120" height="60" as="geometry" />
        </mxCell>
        <mxCell id="0BagbGhijmzTopwAj-QU-91" value="end" style="ellipse;whiteSpace=wrap;html=1;" parent="1" vertex="1">
          <mxGeometry x="520" y="1900" width="120" height="80" as="geometry" />
        </mxCell>
        <mxCell id="0BagbGhijmzTopwAj-QU-93" value="end" style="ellipse;whiteSpace=wrap;html=1;" parent="1" vertex="1">
          <mxGeometry x="955.63" y="1290" width="120" height="80" as="geometry" />
        </mxCell>
        <mxCell id="0BagbGhijmzTopwAj-QU-95" value="class BinaryToDeciamlConvert&lt;br&gt;" style="ellipse;whiteSpace=wrap;html=1;" parent="1" vertex="1">
          <mxGeometry x="737.5" y="-1110" width="235" height="80" as="geometry" />
        </mxCell>
        <mxCell id="0BagbGhijmzTopwAj-QU-96" value="" style="rounded=0;whiteSpace=wrap;html=1;" parent="1" vertex="1">
          <mxGeometry x="795" y="-970" width="120" height="60" as="geometry" />
        </mxCell>
        <mxCell id="62HERm9EmkKdiQp9v8M5-1" value="No&lt;br&gt;" style="text;html=1;strokeColor=none;fillColor=none;align=center;verticalAlign=middle;whiteSpace=wrap;rounded=0;" vertex="1" parent="1">
          <mxGeometry x="950" y="625" width="60" height="30" as="geometry" />
        </mxCell>
      </root>
    </mxGraphModel>
  </diagram>
</mxfile>
